<svg xmlns="http://www.w3.org/2000/svg" xmlns:xlink="http://www.w3.org/1999/xlink" viewBox="0 0 251.374 203.956"><defs><style>.a{fill:none;}.b{fill:#250f8a;}.c,.f{fill:#02ecf1;}.c{opacity:0.1;}.d{clip-path:url(#a);}.e{fill:#872d24;}.g{fill:#4f34ce;}.h{fill:#263543;}.i{clip-path:url(#c);}.j{fill:#1a242e;}.k{fill:#1b252f;}.l{fill:#1c2631;}.m{fill:#1d2732;}.n{fill:#1d2934;}.o{fill:#1e2a35;}.p{fill:#1f2b37;}.q{fill:#202c38;}.r{fill:#212d3a;}.s{clip-path:url(#l);}.t{clip-path:url(#m);}.u{clip-path:url(#n);}.v{fill:#23313e;}.w{fill:#22303d;}.x{fill:#222e3b;}.y{fill:#19232c;}.z{fill:#18222b;}.aa{fill:#182029;}.ab{clip-path:url(#ac);}.ac{fill:#0ad7dd;}.ad{fill:#fff;}.ae{fill:#fa7564;}.af{fill:#e5fdfd;}.ag{fill:#ffca00;}.ah{fill:#172029;}.ai{fill:#263442;}</style><clipPath id="a"><path class="a" d="M0,3.777C-.007,6.536,1.69,9.3,5.087,11.4h0c6.747,4.18,17.651,4.18,24.352,0h0c3.329-2.076,5-4.793,5-7.515h0q0-1.89.01-3.78h0c-.007,2.721-1.674,5.44-5,7.513h0c-6.7,4.18-17.606,4.18-24.351,0h0C1.7,5.52,0,2.756.009,0h0" transform="translate(0.757 0.852)"/></clipPath><clipPath id="c"><path class="a" d="M3.874.3q-.967.6-1.937,1.188h0C1.291,1.879.647,2.275,0,2.669H0a2.818,2.818,0,0,1,2.973.309h0L6.847.607A3.671,3.671,0,0,0,4.968,0h0A2.063,2.063,0,0,0,3.874.3" transform="translate(0.119 0.441)"/></clipPath><clipPath id="l"><path class="b" d="M3.874.3q-.967.6-1.937,1.188h0C1.291,1.879.647,2.275,0,2.669H0a2.818,2.818,0,0,1,2.973.309h0L6.847.607A3.671,3.671,0,0,0,4.968,0h0A2.063,2.063,0,0,0,3.874.3" transform="translate(0.119 0.441)"/></clipPath><clipPath id="m"><path class="a" d="M1.277,2.493A3.3,3.3,0,0,1,0,5.461H0l.609-.375h0c.062-.038.143-.087.2-.126h0q.814-.5,1.628-1h0q.711-.435,1.423-.871h0c.061-.036.142-.085.2-.125h0A3.306,3.306,0,0,0,5.346,0h0" transform="translate(0.168 0.228)"/></clipPath><clipPath id="n"><path class="a" d="M0,2.373a9.871,9.871,0,0,1,4.015,7.6h0L7.749,7.6A9.87,9.87,0,0,0,3.736,0h0" transform="translate(0.784 0.245)"/></clipPath><clipPath id="ac"><path class="b" d="M0,2.373a9.871,9.871,0,0,1,4.015,7.6h0L7.749,7.6A9.87,9.87,0,0,0,3.736,0h0" transform="translate(0.784 0.245)"/></clipPath></defs><g transform="translate(-0.031 -0.522)"><path class="c" d="M7.962,91.895c20.76,45.361,103.454,56.461,175.279,25.93S161.333,62.139,206.267,44.8,150.8-27.681,78.306,17.2-12.8,46.533,7.962,91.895Z" transform="translate(203.025 204.478) rotate(-159)"/><g transform="translate(69 19)"><path class="b" d="M17.5,25l-.3,0h-.36c-.091,0-.184-.008-.273-.014l-.177-.011c-.26-.011-.568-.026-.881-.049-.069-.006-.139-.009-.207-.012s-.126-.005-.189-.01c-.078-.007-.155-.017-.231-.027s-.127-.016-.19-.023c-.254-.027-.531-.059-.872-.1-.059-.008-.118-.014-.177-.02-.077-.008-.157-.017-.235-.028s-.131-.022-.194-.035-.117-.023-.177-.032c-.284-.046-.58-.1-.933-.172l-.149-.026c-.094-.016-.191-.032-.285-.052-.054-.012-.109-.027-.161-.041s-.084-.023-.126-.033c-.382-.087-.756-.187-1.1-.282-.067-.019-.137-.036-.2-.052s-.157-.038-.234-.06c-.028-.008-.054-.018-.081-.029l-.066-.024c-.687-.211-1.3-.429-1.888-.667l-.038-.013a.52.52,0,0,1-.056-.02c-.2-.083-.4-.176-.591-.266l-.191-.09-.167-.075,0,0c-.1-.044-.2-.087-.291-.132-.453-.228-.886-.464-1.285-.7C1.834,19.875-.007,17.185,0,14.323l.01-3.734a.014.014,0,0,1,0,.009C.009,7.769,1.818,5.11,5.1,3.11A24.169,24.169,0,0,1,17.485,0,24.365,24.365,0,0,1,29.911,3.116a11.8,11.8,0,0,1,4.03,3.775,6.963,6.963,0,0,1,1.106,4.29c0-.054.01-.108.016-.161.011-.107.023-.218.024-.327q0,.919,0,1.841v.02q0,.941,0,1.882v.008c0,.033,0,.067,0,.1V14.6a1.993,1.993,0,0,1-.022.213c-.007.052-.015.1-.019.158l-.007.084c-.013.164-.027.333-.056.5a.292.292,0,0,0-.007.053.376.376,0,0,1,0,.045,2.094,2.094,0,0,1-.055.206c-.016.052-.032.106-.045.16l-.017.069c-.039.16-.08.325-.135.486a.5.5,0,0,0-.013.051.425.425,0,0,1-.017.061,1.966,1.966,0,0,1-.086.2c-.021.044-.043.09-.062.135-.079.188-.16.383-.257.573a.755.755,0,0,0-.031.069.76.76,0,0,1-.031.07,1.653,1.653,0,0,1-.092.146c-.028.041-.056.083-.081.125-.148.247-.278.45-.411.638a1.073,1.073,0,0,0-.06.093,1.124,1.124,0,0,1-.062.1c-.091.12-.194.242-.294.36l-.049.058-.055.067-.059.072c-.222.252-.429.469-.63.664a.739.739,0,0,1-.056.049c-.018.015-.037.03-.053.046-.128.121-.27.24-.408.356l-.131.111-.136.114c-.113.1-.23.195-.354.289-.188.144-.395.284-.6.418l-.046.031c-.062.042-.122.085-.18.128-.083.06-.169.122-.262.181l-.024.015-.189.117a18.249,18.249,0,0,1-1.656.875c-.135.064-.275.125-.411.185l-.083.036c-.442.194-.906.379-1.38.548-.057.019-.113.043-.166.065s-.094.04-.143.058l-.082.023c-.038.01-.077.021-.115.034-.249.083-.509.157-.76.229l-.143.041-.185.054c-.164.048-.333.1-.5.14-.269.069-.547.127-.817.183l-.153.032-.211.049c-.115.028-.234.056-.353.078l-.057.008-.043.006c-.608.115-1.259.21-1.991.293l-.073.01-.073.01c-.086.009-.173.014-.258.019s-.148.009-.222.015c-.453.038-.83.064-1.185.081-.046,0-.092.006-.136.01s-.1.009-.144.01-.107,0-.161,0h-.316C17.895,25,17.69,25,17.5,25Z" transform="translate(36.034 108)"/><g transform="translate(35.086 117)"><path class="a" d="M0,3.777C-.007,6.536,1.69,9.3,5.087,11.4h0c6.747,4.18,17.651,4.18,24.352,0h0c3.329-2.076,5-4.793,5-7.515h0q0-1.89.01-3.78h0c-.007,2.721-1.674,5.44-5,7.513h0c-6.7,4.18-17.606,4.18-24.351,0h0C1.7,5.52,0,2.756.009,0h0" transform="translate(0.757 0.852)"/><g class="d"><path class="e" d="M.012,0,0,3.78c0,.053,0,.107,0,.161L.011.163c0-.055,0-.109,0-.163" transform="translate(35.196 0.962)"/></g><path class="a" d="M0,3.777C-.007,6.536,1.69,9.3,5.087,11.4h0c6.747,4.18,17.651,4.18,24.352,0h0c3.329-2.076,5-4.793,5-7.515h0q0-1.89.01-3.78h0c-.007,2.721-1.674,5.44-5,7.513h0c-6.7,4.18-17.606,4.18-24.351,0h0C1.7,5.52,0,2.756.009,0h0" transform="translate(0.757 0.852)"/><g class="d"><path class="b" d="M.123,0,.113,3.779A6.823,6.823,0,0,1,0,4.84L.01,1.059A6.772,6.772,0,0,0,.123,0" transform="translate(35.083 1.125)"/></g><g transform="translate(34.138 2)"><path class="b" d="M.288,0,.278,3.781A7.331,7.331,0,0,1,0,4.82L.01,1.04A7.207,7.207,0,0,0,.288,0" transform="translate(0.667 0.183)"/></g><g transform="translate(34.138 3)"><path class="b" d="M.468,0,.459,3.78A7.742,7.742,0,0,1,0,4.831l.01-3.78A7.966,7.966,0,0,0,.468,0" transform="translate(0.209 0.224)"/></g><g transform="translate(33.19 4)"><path class="b" d="M.7,0,.693,3.78A8.874,8.874,0,0,1,0,4.884L.01,1.105A8.888,8.888,0,0,0,.7,0" transform="translate(0.463 0.275)"/></g><g transform="translate(32.241 5)"><path class="b" d="M1.077,0l-.01,3.779A10.5,10.5,0,0,1,0,5.011l.01-3.78A10.388,10.388,0,0,0,1.077,0" transform="translate(0.344 0.38)"/></g><g transform="translate(30.345 6)"><path class="b" d="M2.189,0,2.181,3.78A13.535,13.535,0,0,1,0,5.513l.01-3.78A13.5,13.5,0,0,0,2.189,0" transform="translate(0.061 0.611)"/></g><g transform="translate(25.603 8)"><path class="b" d="M3.99,0,3.98,3.78l-.21.133A18.918,18.918,0,0,1,0,5.693l.009-3.78A18.868,18.868,0,0,0,3.78.132C3.852.088,3.92.044,3.99,0" transform="translate(0.822 0.344)"/></g><g transform="translate(22.759 10)"><path class="b" d="M3.27,0,3.26,3.78A23.521,23.521,0,0,1,0,4.649L.009.871A23.683,23.683,0,0,0,3.27,0" transform="translate(0.405 0.256)"/></g><g transform="translate(20.862 11)"><path class="b" d="M2.206,0,2.2,3.779c-.722.139-1.456.249-2.2.329L.009.327C.751.249,1.485.139,2.206,0" transform="translate(0.106 0.127)"/></g><g transform="translate(18.966 11)"><path class="b" d="M1.919,0,1.91,3.781q-.951.1-1.91.136L.009.139Q.97.1,1.919,0" transform="translate(0.093 0.454)"/></g><g transform="translate(17.069 11)"><path class="b" d="M1.774,0l-.01,3.779Q.883,3.813,0,3.788L.01.009Q.892.033,1.774,0" transform="translate(0.224 0.592)"/></g><g transform="translate(15.172 11)"><path class="b" d="M1.706.1,1.7,3.876C1.129,3.861.563,3.828,0,3.781L.01,0c.563.049,1.129.081,1.7.1" transform="translate(0.425 0.504)"/></g><g transform="translate(13.276 11)"><path class="b" d="M1.685.2l-.01,3.781Q.833,3.907,0,3.78L.01,0Q.841.126,1.685.2" transform="translate(0.646 0.302)"/></g><g transform="translate(11.379 10)"><path class="b" d="M1.717.317,1.707,4.1C1.132,4.009.562,3.9,0,3.779L.009,0Q.853.186,1.717.317" transform="translate(0.836 0.985)"/></g><g transform="translate(9.483 10)"><path class="b" d="M1.805.472,1.8,4.251C1.187,4.116.588,3.957,0,3.779L.01,0C.6.179,1.2.335,1.805.472" transform="translate(0.937 0.512)"/></g><g transform="translate(7.586 9)"><path class="b" d="M2.1.757l-.01,3.78A21.98,21.98,0,0,1,0,3.78L.009,0A21.293,21.293,0,0,0,2.1.757" transform="translate(0.743 0.754)"/></g><path class="b" d="M7.582,8.9l-.01,3.78a18.316,18.316,0,0,1-2.484-1.277C1.69,9.3-.006,6.537,0,3.777L.01,0C0,2.757,1.7,5.52,5.1,7.624A18.1,18.1,0,0,0,7.582,8.9" transform="translate(0.756 0.851)"/></g><path class="f" d="M15.931,15.4h7.584c3.254-3.983,2.166-8.966-3.278-12.292A24.516,24.516,0,0,0,6.568.035L0,5.665Z" transform="translate(45.068 108.076)"/><path class="f" d="M25.228,15.366,9.3,5.63,15.864,0A23.118,23.118,0,0,0,5.032,3.069c-6.741,4.149-6.7,10.875.088,15.027s17.754,4.148,24.495,0a12.6,12.6,0,0,0,3.2-2.73Z" transform="translate(35.771 108.111)"/><path class="g" d="M.112,1.415,2.411,0,2.3,42.52,0,43.933Z" transform="translate(61 79.544)"/><path class="h" d="M0,1.414,2.3,0,18.229,9.739l-2.3,1.415Z" transform="translate(45.182 69.805)"/><path class="b" d="M16.044,9.74l-.113,42.518L0,42.522.114,0Z" transform="translate(45.068 71.219)"/><path class="b" d="M103.706,134.55c-.052,0-.1,0-.158-.005a3.705,3.705,0,0,1-1.685-.582L4.117,74.207a7.429,7.429,0,0,1-1.831-1.661A9.8,9.8,0,0,1,0,66.658l.164-61.2A3.123,3.123,0,0,1,1.374,2.646l-.006,0L2.74,1.806,2.753,1.8l.529-.326q.638-.4,1.276-.787L5.2.292,5.251.261,5.295.236C5.366.2,5.428.17,5.484.149S5.6.1,5.68.08C5.7.074,5.726.069,5.75.064L5.8.055l.014,0,.015,0A.429.429,0,0,1,5.882.035,1.29,1.29,0,0,1,6.094.007C6.161,0,6.226,0,6.289,0h.028c.061,0,.12.005.183.011h.026l.021,0h.01c.076.008.159.021.261.042s.206.048.3.073c.023.007.047.016.071.025s.05.019.074.026L7.3.195,7.334.21l.051.017c.025.008.05.016.075.026a4.845,4.845,0,0,1,.473.23c.064.035.13.073.2.117l97.748,59.755a6.379,6.379,0,0,1,.839.616c.055.048.108.1.159.157.031.032.059.062.089.091l.036.034c.166.155.337.315.5.5l0,0,.008.006c.14.161.273.324.4.485.081.105.167.222.26.357l.007.009a.29.29,0,0,1,.019.026l.007.009,0,.006c.086.123.168.25.244.369s.148.239.212.351c.041.07.08.142.118.212l.016.028.011.02c.01.019.021.038.031.056l.013.022c.06.113.117.227.17.334s.106.224.153.329c.038.085.075.172.118.275a.168.168,0,0,0,.01.022l.008.02.005.013c.053.13.094.236.13.335s.08.225.119.342.077.243.107.353l0,.012,0,.006c.032.113.065.235.094.359s.057.245.088.405c.011.056.02.113.028.168.005.034.01.068.016.1s.006.042.01.062l0,.022c0,.012,0,.023.006.035s.008.044.01.067c.026.192.043.381.053.562.007.13.01.254.01.369l-.164,61.2a3.129,3.129,0,0,1-1.2,2.8l-.073.045-.12.074-.372.229-.969.6-1.136.7-.037.023-.359.221c-.058.034-.133.081-.191.117l-.091.056-.007,0c-.152.093-.3.185-.455.279a1.244,1.244,0,0,0,.17-.148c.027-.027.054-.052.08-.077A1.993,1.993,0,0,1,103.706,134.55Z" transform="translate(0 0.45)"/><g transform="translate(0.948)"><path class="a" d="M3.874.3q-.967.6-1.937,1.188h0C1.291,1.879.647,2.275,0,2.669H0a2.818,2.818,0,0,1,2.973.309h0L6.847.607A3.671,3.671,0,0,0,4.968,0h0A2.063,2.063,0,0,0,3.874.3" transform="translate(0.119 0.441)"/><g class="i"><path class="j" d="M0,2.428,3.873.055c.033-.019.066-.039.1-.055L.1,2.372c-.034.019-.067.036-.1.056" transform="translate(0.119 0.683)"/></g><path class="a" d="M3.874.3q-.967.6-1.937,1.188h0C1.291,1.879.647,2.275,0,2.669H0a2.818,2.818,0,0,1,2.973.309h0L6.847.607A3.671,3.671,0,0,0,4.968,0h0A2.063,2.063,0,0,0,3.874.3" transform="translate(0.119 0.441)"/><g class="i"><path class="k" d="M0,2.464,3.874.092A1.711,1.711,0,0,1,4.066,0L.192,2.376C.128,2.4.063,2.432,0,2.464" transform="translate(0.217 0.591)"/></g><path class="a" d="M3.874.3q-.967.6-1.937,1.188h0C1.291,1.879.647,2.275,0,2.669H0a2.818,2.818,0,0,1,2.973.309h0L6.847.607A3.671,3.671,0,0,0,4.968,0h0A2.063,2.063,0,0,0,3.874.3" transform="translate(0.119 0.441)"/><g class="i"><path class="l" d="M0,2.441,3.873.067A1.744,1.744,0,0,1,4.071,0L.2,2.373a1.732,1.732,0,0,0-.2.068" transform="translate(0.41 0.525)"/></g><path class="a" d="M3.874.3q-.967.6-1.937,1.188h0C1.291,1.879.647,2.275,0,2.669H0a2.818,2.818,0,0,1,2.973.309h0L6.847.607A3.671,3.671,0,0,0,4.968,0h0A2.063,2.063,0,0,0,3.874.3" transform="translate(0.119 0.441)"/><g class="i"><path class="m" d="M0,2.421,3.873.048A1.4,1.4,0,0,1,4.079,0L.2,2.373a2.089,2.089,0,0,0-.2.048" transform="translate(0.607 0.477)"/></g><path class="a" d="M3.874.3q-.967.6-1.937,1.188h0C1.291,1.879.647,2.275,0,2.669H0a2.818,2.818,0,0,1,2.973.309h0L6.847.607A3.671,3.671,0,0,0,4.968,0h0A2.063,2.063,0,0,0,3.874.3" transform="translate(0.119 0.441)"/><g class="i"><path class="n" d="M0,2.4,3.874.028c.07-.012.143-.021.214-.028L.215,2.373C.142,2.379.071,2.389,0,2.4" transform="translate(0.812 0.449)"/></g><path class="a" d="M3.874.3q-.967.6-1.937,1.188h0C1.291,1.879.647,2.275,0,2.669H0a2.818,2.818,0,0,1,2.973.309h0L6.847.607A3.671,3.671,0,0,0,4.968,0h0A2.063,2.063,0,0,0,3.874.3" transform="translate(0.119 0.441)"/><g class="i"><path class="o" d="M0,2.381,3.873.008C3.947,0,4.023,0,4.1,0L.226,2.373c-.077,0-.152,0-.226.008" transform="translate(1.027 0.441)"/></g><path class="a" d="M3.874.3q-.967.6-1.937,1.188h0C1.291,1.879.647,2.275,0,2.669H0a2.818,2.818,0,0,1,2.973.309h0L6.847.607A3.671,3.671,0,0,0,4.968,0h0A2.063,2.063,0,0,0,3.874.3" transform="translate(0.119 0.441)"/><g class="i"><path class="p" d="M0,2.373,3.873,0c.08,0,.161.008.243.015L.241,2.389C.159,2.381.08,2.375,0,2.373" transform="translate(1.253 0.442)"/></g><path class="a" d="M3.874.3q-.967.6-1.937,1.188h0C1.291,1.879.647,2.275,0,2.669H0a2.818,2.818,0,0,1,2.973.309h0L6.847.607A3.671,3.671,0,0,0,4.968,0h0A2.063,2.063,0,0,0,3.874.3" transform="translate(0.119 0.441)"/><g class="i"><path class="q" d="M0,2.373,3.873,0c.087.009.176.023.264.04L.263,2.413C.174,2.4.086,2.383,0,2.373" transform="translate(1.495 0.457)"/></g><path class="a" d="M3.874.3q-.967.6-1.937,1.188h0C1.291,1.879.647,2.275,0,2.669H0a2.818,2.818,0,0,1,2.973.309h0L6.847.607A3.671,3.671,0,0,0,4.968,0h0A2.063,2.063,0,0,0,3.874.3" transform="translate(0.119 0.441)"/><g class="i"><path class="r" d="M0,2.373,3.874,0c.1.02.2.045.3.075L.3,2.449C.2,2.419.1,2.4,0,2.373" transform="translate(1.759 0.498)"/></g><path class="b" d="M3.874.3q-.967.6-1.937,1.188h0C1.291,1.879.647,2.275,0,2.669H0a2.818,2.818,0,0,1,2.973.309h0L6.847.607A3.671,3.671,0,0,0,4.968,0h0A2.063,2.063,0,0,0,3.874.3" transform="translate(0.119 0.441)"/><g class="s"><path class="b" d="M0,2.373,3.874,0c.115.035.231.076.35.124L.35,2.5C.233,2.452.115,2.408,0,2.373" transform="translate(2.057 0.573)"/></g><g transform="translate(1.897)"><path class="b" d="M0,2.373,3.873,0a4.125,4.125,0,0,1,.48.232L.479,2.605A4.23,4.23,0,0,0,0,2.373" transform="translate(0.511 0.698)"/></g><g transform="translate(2.845)"><path class="b" d="M0,2.373,3.873,0c.07.036.135.075.206.119L.2,2.491c-.068-.04-.135-.083-.2-.117" transform="translate(0.043 0.93)"/></g></g><g transform="translate(104.31 129)"><path class="a" d="M1.277,2.493A3.3,3.3,0,0,1,0,5.461H0l.609-.375h0c.062-.038.143-.087.2-.126h0q.814-.5,1.628-1h0q.711-.435,1.423-.871h0c.061-.036.142-.085.2-.125h0A3.306,3.306,0,0,0,5.346,0h0" transform="translate(0.168 0.228)"/><g class="t"><path class="b" d="M1.277,2.493,5.345,0A3.3,3.3,0,0,1,4.068,2.968L0,5.46A3.3,3.3,0,0,0,1.277,2.493" transform="translate(0.169 0.228)"/></g></g><g transform="translate(3.793 1)"><path class="b" d="M.165,2.35,3.992,0,3.83,61.039,0,63.39Z" transform="translate(102.213 67.158)"/><path class="b" d="M0,2.348,3.828,0l97.709,59.594-3.83,2.35Z" transform="translate(0.556 0.038)"/></g><g transform="translate(101.466 60)"><path class="a" d="M0,2.373a9.871,9.871,0,0,1,4.015,7.6h0L7.749,7.6A9.87,9.87,0,0,0,3.736,0h0" transform="translate(0.784 0.245)"/><g class="u"><path class="v" d="M0,2.373,3.736,0a7.106,7.106,0,0,1,1.59,1.413L1.59,3.787A7.113,7.113,0,0,0,0,2.373" transform="translate(0.784 0.245)"/></g><path class="a" d="M0,2.373a9.871,9.871,0,0,1,4.015,7.6h0L7.749,7.6A9.87,9.87,0,0,0,3.736,0h0" transform="translate(0.784 0.245)"/><g class="u"><path class="w" d="M0,2.372,3.734,0q.2.232.389.487L.388,2.86C.263,2.691.133,2.528,0,2.372" transform="translate(2.374 1.659)"/></g><path class="a" d="M0,2.373a9.871,9.871,0,0,1,4.015,7.6h0L7.749,7.6A9.87,9.87,0,0,0,3.736,0h0" transform="translate(0.784 0.245)"/><g class="u"><path class="x" d="M0,2.373,3.734,0c.1.133.2.271.291.411L.29,2.785C.2,2.644.1,2.507,0,2.373" transform="translate(2.762 2.146)"/></g><path class="a" d="M0,2.373a9.871,9.871,0,0,1,4.015,7.6h0L7.749,7.6A9.87,9.87,0,0,0,3.736,0h0" transform="translate(0.784 0.245)"/><g class="u"><path class="r" d="M0,2.373,3.736,0c.082.121.161.244.238.372L.239,2.745C.162,2.62.082,2.495,0,2.373" transform="translate(3.052 2.558)"/></g><path class="a" d="M0,2.373a9.871,9.871,0,0,1,4.015,7.6h0L7.749,7.6A9.87,9.87,0,0,0,3.736,0h0" transform="translate(0.784 0.245)"/><g class="u"><path class="q" d="M0,2.373,3.734,0c.071.116.14.233.206.351L.206,2.725C.139,2.607.071,2.489,0,2.373" transform="translate(3.292 2.93)"/></g><path class="a" d="M0,2.373a9.871,9.871,0,0,1,4.015,7.6h0L7.749,7.6A9.87,9.87,0,0,0,3.736,0h0" transform="translate(0.784 0.245)"/><g class="u"><path class="p" d="M0,2.373,3.734,0c.065.113.126.227.185.343L.183,2.716C.124,2.6.063,2.487,0,2.373" transform="translate(3.497 3.281)"/></g><path class="a" d="M0,2.373a9.871,9.871,0,0,1,4.015,7.6h0L7.749,7.6A9.87,9.87,0,0,0,3.736,0h0" transform="translate(0.784 0.245)"/><g class="u"><path class="o" d="M0,2.373,3.736,0c.057.111.112.223.166.336L.166,2.708C.113,2.6.057,2.483,0,2.373" transform="translate(3.681 3.624)"/></g><path class="a" d="M0,2.373a9.871,9.871,0,0,1,4.015,7.6h0L7.749,7.6A9.87,9.87,0,0,0,3.736,0h0" transform="translate(0.784 0.245)"/><g class="u"><path class="n" d="M0,2.372,3.736,0c.051.109.1.219.15.331L.151,2.705C.1,2.592.052,2.481,0,2.372" transform="translate(3.846 3.96)"/></g><path class="a" d="M0,2.373a9.871,9.871,0,0,1,4.015,7.6h0L7.749,7.6A9.87,9.87,0,0,0,3.736,0h0" transform="translate(0.784 0.245)"/><g class="u"><path class="m" d="M0,2.375,3.734,0c.05.111.1.223.139.333L.138,2.707C.094,2.6.048,2.485,0,2.375" transform="translate(3.997 4.291)"/></g><path class="a" d="M0,2.373a9.871,9.871,0,0,1,4.015,7.6h0L7.749,7.6A9.87,9.87,0,0,0,3.736,0h0" transform="translate(0.784 0.245)"/><g class="u"><path class="l" d="M0,2.373,3.734,0c.045.112.088.225.128.339L.126,2.713C.087,2.6.044,2.487,0,2.373" transform="translate(4.135 4.624)"/></g><path class="a" d="M0,2.373a9.871,9.871,0,0,1,4.015,7.6h0L7.749,7.6A9.87,9.87,0,0,0,3.736,0h0" transform="translate(0.784 0.245)"/><g class="u"><path class="k" d="M0,2.375,3.737,0c.04.115.078.229.116.344L.117,2.719C.08,2.6.043,2.488,0,2.375" transform="translate(4.261 4.962)"/></g><path class="a" d="M0,2.373a9.871,9.871,0,0,1,4.015,7.6h0L7.749,7.6A9.87,9.87,0,0,0,3.736,0h0" transform="translate(0.784 0.245)"/><g class="u"><path class="j" d="M0,2.375,3.736,0c.038.119.073.237.1.356L.1,2.731c-.032-.12-.067-.239-.1-.356" transform="translate(4.377 5.306)"/></g><path class="a" d="M0,2.373a9.871,9.871,0,0,1,4.015,7.6h0L7.749,7.6A9.87,9.87,0,0,0,3.736,0h0" transform="translate(0.784 0.245)"/><g class="u"><path class="y" d="M0,2.373,3.736,0c.035.124.067.251.1.377L.1,2.751C.068,2.624.035,2.5,0,2.373" transform="translate(4.483 5.663)"/></g><path class="a" d="M0,2.373a9.871,9.871,0,0,1,4.015,7.6h0L7.749,7.6A9.87,9.87,0,0,0,3.736,0h0" transform="translate(0.784 0.245)"/><g class="u"><path class="z" d="M0,2.373,3.734,0c.033.136.061.272.087.408L.085,2.783C.061,2.647.03,2.511,0,2.373" transform="translate(4.58 6.041)"/></g><path class="a" d="M0,2.373a9.871,9.871,0,0,1,4.015,7.6h0L7.749,7.6A9.87,9.87,0,0,0,3.736,0h0" transform="translate(0.784 0.245)"/><g class="u"><path class="aa" d="M0,2.373,3.736,0c.028.153.052.305.072.459L.073,2.833C.052,2.68.029,2.527,0,2.373" transform="translate(4.665 6.449)"/></g><path class="b" d="M0,2.373a9.871,9.871,0,0,1,4.015,7.6h0L7.749,7.6A9.87,9.87,0,0,0,3.736,0h0" transform="translate(0.784 0.245)"/><g class="ab"><path class="b" d="M0,2.373,3.734,0c.024.189.041.379.052.568L.051,2.941Q.037,2.659,0,2.373" transform="translate(4.737 6.909)"/></g><g transform="translate(4.741 7)"><path class="b" d="M0,2.373,3.736,0c.006.124.009.247.009.369L.01,2.743c0-.12,0-.245-.01-.369" transform="translate(0.047 0.477)"/></g></g><g transform="translate(0 3)"><path class="ac" d="M102.012,60.2a9.68,9.68,0,0,1,4.113,7.525l-.164,61.041c-.007,2.769-1.858,3.883-4.14,2.492L4.113,71.658A9.686,9.686,0,0,1,0,64.131L.164,3.091C.171.322,2.023-.793,4.3.6Z" transform="translate(0 0.147)"/></g><g transform="translate(6.638 10)"><path class="ad" d="M94.094,112.824,0,55.443.13,0,94.243,57.4l-.148,55.419ZM33.768,25.518,33.741,34.7l-.1,38.357,55.548,33.881.1-38.358.024-9.185L33.766,25.517ZM4.289,7.538l-.025,9.185-.1,38.357,24.4,14.884.1-38.36.023-9.185Z" transform="translate(0.529 0.71)"/><g transform="translate(41.724 86)"><path class="b" d="M8,4.876.007,0,0,2.424,8,7.3Z" transform="translate(0.613 0.92)"/></g><g transform="translate(4.741 8)"><path class="ae" d="M24.4,24.066h0L0,9.185.023,0l24.4,14.881L24.4,24.064ZM18.53,13.217h0l-.015,5.321L22.9,21.211l.015-5.32L18.53,13.217ZM12.6,9.6l-.013,5.323L16.97,17.6l.013-5.323ZM6.67,5.983,6.656,11.3l4.383,2.673.013-5.322Z" transform="translate(0.053 0.249)"/></g><g transform="translate(3.793 17)"><path class="af" d="M24.4,53.241h0L0,38.356.1,0,24.5,14.882,24.4,53.24ZM1.4,33.53h0l-.007,2.3L22.9,48.946l.006-2.3L1.4,33.53ZM1.478,5.181,1.454,14.14,22.962,27.257l.024-8.956Z" transform="translate(0.898 0.433)"/></g><g transform="translate(34.138 35)"><path class="af" d="M55.547,72.239,0,38.358.1,0,55.652,33.879l-.1,38.358ZM1.589,25.826l-.023,8.96L54.021,66.777l.023-8.958Zm.014-4.68-.006,2.3L54.05,55.437l.006-2.3Zm.012-4.606-.006,2.3L54.063,50.832l.006-2.3ZM1.645,5.284,1.622,14.24,54.076,46.234l.023-8.957Z" transform="translate(0.029 0.411)"/></g><g transform="translate(34.138 26)"><path class="ae" d="M55.547,43.064,0,9.185.025,0,55.572,33.879l-.025,9.184Zm-5.9-10.869h0l-.015,5.321,4.385,2.673.014-5.321-4.383-2.673Zm-5.93-3.617L43.7,33.9l4.382,2.673.015-5.319Zm-5.93-3.618-.014,5.323,4.382,2.673.015-5.321Z" transform="translate(0.132 0.227)"/></g><g transform="translate(83.448 58)"><path class="ag" d="M4.4,2.673.015,0,0,5.321,4.384,7.994Z" transform="translate(0.451 0.422)"/></g><g transform="translate(77.759 54)"><path class="ad" d="M4.4,2.673.015,0,0,5.32,4.383,7.993Z" transform="translate(0.21 0.806)"/></g><g transform="translate(71.121 51)"><path class="ad" d="M4.4,2.673.014,0,0,5.322,4.383,7.994Z" transform="translate(0.919 0.187)"/></g><g transform="translate(22.759 21)"><path class="ag" d="M4.4,2.673.015,0,0,5.321,4.383,7.993Z" transform="translate(0.551 0.467)"/></g><g transform="translate(17.069 17)"><path class="ad" d="M4.4,2.673.015,0,0,5.322,4.383,7.994Z" transform="translate(0.311 0.85)"/></g><g transform="translate(11.379 14)"><path class="ad" d="M4.4,2.673.014,0,0,5.321,4.383,7.994Z" transform="translate(0.071 0.233)"/></g><g transform="translate(5.69 22)"><path class="ad" d="M21.531,13.118.024,0,0,8.959,21.506,22.074Z" transform="translate(0.456 0.615)"/></g><g transform="translate(35.086 40)"><path class="ad" d="M52.479,31.993.025,0,0,8.956,52.454,40.95Z" transform="translate(0.701 0.696)"/></g><g transform="translate(35.086 61)"><path class="ad" d="M52.479,31.993.024,0,0,8.959,52.454,40.95Z" transform="translate(0.646 0.238)"/></g><g transform="translate(5.69 50)"><path class="ag" d="M21.514,13.118.007,0,0,2.3,21.508,15.416Z" transform="translate(0.397 0.962)"/></g><g transform="translate(35.086 51)"><path class="ag" d="M52.461,31.993.007,0,0,2.3,52.455,34.291Z" transform="translate(0.688 0.952)"/></g><g transform="translate(35.086 56)"><path class="ag" d="M52.46,31.993.006,0,0,2.3,52.455,34.292Z" transform="translate(0.677 0.556)"/></g></g><g transform="translate(4.741 8)"><path class="ah" d="M2.446,57.016,0,58.282.155,0,2.575,1.48Z" transform="translate(0.021 0.954)"/><path class="ai" d="M96.456,57.48l-.007,2.767L0,1.267,2.446,0Z" transform="translate(0.021 57.969)"/></g></g></g></svg>